<svg width="266" height="215" viewBox="0 0 266 215" fill="none" xmlns="http://www.w3.org/2000/svg">
<path d="M27 40.16C25.56 40.1067 24.84 40.9067 24.84 42.56V45.12C24.84 46.9333 25.64 47.84 27.24 47.84C27.88 47.84 28.68 47.76 29.64 47.6C30.8133 47.3867 31.8 47.28 32.6 47.28C33.9333 47.28 35 47.76 35.8 48.72C36.6 49.68 37 50.96 37 52.56C37 54.32 36.4667 55.7333 35.4 56.8C34.3333 57.8667 32.9467 58.4 31.24 58.4C29.7467 58.4 27.5333 58.2667 24.6 58C21.6667 57.7333 19.4533 57.6 17.96 57.6C15.6667 57.6 13.7467 57.68 12.2 57.84L8.28 58.24C7.21333 58.3467 6.49333 58.4 6.12 58.4C4.41333 58.4 3.02667 57.8667 1.96 56.8C0.946667 55.7333 0.44 54.32 0.44 52.56C0.44 51.0667 0.84 49.8133 1.64 48.8C2.49333 47.7867 3.53333 47.28 4.76 47.28C5.24 47.28 5.90667 47.3867 6.76 47.6C7.61333 47.76 8.22667 47.84 8.6 47.84C10.04 47.84 10.76 46.0267 10.76 42.4V20.24C10.76 18.5333 10.7067 17.44 10.6 16.96C10.3333 15.5733 9.66667 14.88 8.6 14.88C8.17333 14.88 7.53333 14.9867 6.68 15.2C5.88 15.36 5.24 15.44 4.76 15.44C3.53333 15.44 2.49333 14.9333 1.64 13.92C0.84 12.9067 0.44 11.6533 0.44 10.16C0.44 8.4 0.973333 6.98666 2.04 5.92C3.10667 4.8 4.49333 4.24 6.2 4.24C6.25333 4.24 6.33333 4.24 6.44 4.24C6.54667 4.29333 6.65333 4.32 6.76 4.32C8.04 4.32 9.98667 4.45333 12.6 4.72C15.2133 4.98667 17.1867 5.12 18.52 5.12C21.08 5.12 23.88 5.01333 26.92 4.8C30.76 4.53333 32.9467 4.4 33.48 4.4C39.2933 4.4 43.9867 6.05333 47.56 9.36C51.1867 12.6133 53 16.9067 53 22.24C53 27.7867 51.1333 32.1867 47.4 35.44C43.72 38.6933 38.68 40.32 32.28 40.32C31.7467 40.32 30.7333 40.2933 29.24 40.24L27 40.16ZM24.84 26.64C24.84 28.1333 24.9733 29.0667 25.24 29.44C25.5067 29.76 26.2267 29.9467 27.4 30L28.68 30.08C34.9733 30.4533 38.12 27.9733 38.12 22.64C38.12 17.52 35.2933 14.96 29.64 14.96C28.2533 14.96 27.2933 15.04 26.76 15.2C25.8 15.4667 25.2133 16.1067 25 17.12C24.8933 17.6533 24.84 18.4533 24.84 19.52V26.64ZM73.6706 17.76C75.164 17.76 75.9106 18.8 75.9106 20.88V44.96C75.9106 47.68 76.4173 49.04 77.4306 49.04C77.644 49.04 78.0173 48.9867 78.5506 48.88C79.1373 48.72 79.6173 48.64 79.9906 48.64C82.2306 48.64 83.3506 50.0267 83.3506 52.8C83.3506 56.48 81.7773 58.32 78.6306 58.32C78.0973 58.32 76.604 58.1867 74.1506 57.92C72.6573 57.76 70.9506 57.68 69.0306 57.68C68.0706 57.68 66.6573 57.7867 64.7906 58C62.924 58.2133 61.5373 58.32 60.6306 58.32C59.1906 58.32 58.0173 57.84 57.1106 56.88C56.204 55.8667 55.7506 54.5867 55.7506 53.04C55.7506 50 57.0306 48.48 59.5906 48.48C59.5906 48.48 60.284 48.64 61.6706 48.96C61.884 49.0133 62.0706 49.04 62.2306 49.04C63.1906 49.04 63.6706 47.5467 63.6706 44.56V31.6C63.6706 28.56 63.2173 27.04 62.3106 27.04C62.1506 27.04 61.6706 27.1733 60.8706 27.44C60.3373 27.5467 59.9106 27.6 59.5906 27.6C57.0306 27.6 55.7506 26.1067 55.7506 23.12C55.7506 21.52 56.204 20.24 57.1106 19.28C58.0173 18.2667 59.2173 17.76 60.7106 17.76C61.2973 17.76 62.1506 17.84 63.2706 18C65.1373 18.2667 66.6306 18.4 67.7506 18.4C68.6573 18.4 69.8306 18.2933 71.2706 18.08C72.7106 17.8667 73.5106 17.76 73.6706 17.76ZM69.1106 14.72C67.1373 14.72 65.4306 14 63.9906 12.56C62.5506 11.12 61.8306 9.41333 61.8306 7.44C61.8306 5.41333 62.524 3.70666 63.9106 2.32C65.3506 0.879996 67.084 0.159996 69.1106 0.159996C71.1373 0.159996 72.844 0.879996 74.2306 2.32C75.6706 3.70666 76.3906 5.41333 76.3906 7.44C76.3906 9.46666 75.6706 11.2 74.2306 12.64C72.844 14.0267 71.1373 14.72 69.1106 14.72ZM124.731 34.56C124.731 36.8 124.438 38.2933 123.851 39.04C123.318 39.7867 122.225 40.16 120.571 40.16H101.051C100.091 40.16 99.4779 40.2667 99.2113 40.48C98.9979 40.64 98.8913 41.0933 98.8913 41.84C98.8913 44.08 99.6113 45.9467 101.051 47.44C102.491 48.9333 104.305 49.68 106.491 49.68C108.731 49.68 111.025 48.4533 113.371 46C114.971 44.2933 116.731 43.44 118.651 43.44C120.251 43.44 121.531 43.8933 122.491 44.8C123.505 45.7067 124.011 46.8533 124.011 48.24C124.011 51.3333 122.305 53.9733 118.891 56.16C115.531 58.2933 111.425 59.36 106.571 59.36C100.225 59.36 95.1579 57.44 91.3713 53.6C87.5846 49.76 85.6913 44.64 85.6913 38.24C85.6913 31.7867 87.5579 26.5867 91.2913 22.64C95.0779 18.64 100.011 16.64 106.091 16.64C111.745 16.64 116.251 18.2667 119.611 21.52C123.025 24.7733 124.731 29.12 124.731 34.56ZM99.2913 30.56C99.2913 30.88 99.3713 31.1467 99.5313 31.36C99.6913 31.5733 100.251 31.68 101.211 31.68H110.171C110.971 31.68 111.451 31.6 111.611 31.44C111.825 31.2267 111.931 30.88 111.931 30.4C111.931 29.0133 111.318 27.8133 110.091 26.8C108.865 25.7333 107.425 25.2 105.771 25.2C103.638 25.2 101.905 26.0267 100.571 27.68C99.7179 28.7467 99.2913 29.7067 99.2913 30.56ZM146.323 17.2C150.376 17.2 154.11 18.7733 157.523 21.92V16.16C157.523 14.24 156.856 13.28 155.523 13.28C155.203 13.28 154.563 13.3333 153.603 13.44C152.91 13.6533 152.216 13.76 151.523 13.76C150.51 13.76 149.656 13.3333 148.963 12.48C148.27 11.6267 147.923 10.56 147.923 9.28C147.923 5.86666 149.736 4.16 153.363 4.16C154.536 4.16 155.39 4.18666 155.923 4.24C158.056 4.45333 159.496 4.56 160.243 4.56C160.936 4.56 161.95 4.50666 163.283 4.4C164.616 4.29333 165.603 4.24 166.243 4.24C167.576 4.24 168.483 4.56 168.963 5.2C169.496 5.78666 169.763 6.90666 169.763 8.56V44.96C169.763 47.68 170.27 49.04 171.283 49.04C171.603 49.04 172.003 48.96 172.483 48.8C172.803 48.6933 173.23 48.64 173.763 48.64C176.056 48.64 177.203 50 177.203 52.72C177.203 54.3733 176.803 55.7333 176.003 56.8C175.203 57.8133 174.136 58.32 172.803 58.32H172.323L169.523 57.84C168.883 57.7333 167.976 57.68 166.803 57.68C165.416 57.68 164.27 57.7333 163.363 57.84C162.03 58 161.31 58.08 161.203 58.08C159.55 58.08 158.723 57.12 158.723 55.2V52.24C155.95 56.9867 151.79 59.36 146.243 59.36C141.336 59.36 137.283 57.36 134.083 53.36C130.936 49.3067 129.363 44.2133 129.363 38.08C129.363 31.84 130.91 26.8 134.003 22.96C137.15 19.12 141.256 17.2 146.323 17.2ZM149.123 27.28C147.15 27.28 145.523 28.2133 144.243 30.08C143.016 31.9467 142.323 34.48 142.163 37.68C142.163 37.68 142.163 38.0267 142.163 38.72C142.163 41.9733 142.776 44.5333 144.003 46.4C145.283 48.2667 146.99 49.2 149.123 49.2C151.47 49.2 153.363 48.1867 154.803 46.16C156.296 44.1333 157.043 41.44 157.043 38.08C157.043 34.8267 156.323 32.2133 154.883 30.24C153.443 28.2667 151.523 27.28 149.123 27.28ZM196.861 20.24V27.04C197.607 24.32 198.487 22.32 199.501 21.04C201.847 18.1067 205.127 16.64 209.341 16.64C212.274 16.64 214.727 17.6 216.701 19.52C218.727 21.3867 219.741 23.7067 219.741 26.48C219.741 28.6667 219.101 30.48 217.821 31.92C216.541 33.3067 214.914 34 212.941 34C211.447 34 210.167 33.52 209.101 32.56C208.087 31.6 207.581 30.4267 207.581 29.04C207.581 28.2933 207.927 27.2533 208.621 25.92H208.141C204.567 25.92 202.167 27.8133 200.941 31.6C199.981 34.64 199.501 38.1333 199.501 42.08V45.12C199.501 47.04 199.661 48.2667 199.981 48.8C200.194 49.12 200.567 49.28 201.101 49.28C201.581 49.28 202.247 49.1733 203.101 48.96C203.954 48.7467 204.594 48.64 205.021 48.64C206.194 48.64 207.181 49.0667 207.981 49.92C208.834 50.72 209.261 51.7067 209.261 52.88C209.261 54.4267 208.727 55.7333 207.661 56.8C206.647 57.8133 205.394 58.32 203.901 58.32C203.101 58.32 201.607 58.1867 199.421 57.92C198.087 57.76 196.407 57.68 194.381 57.68C192.354 57.68 190.567 57.76 189.021 57.92C186.461 58.1867 184.887 58.32 184.301 58.32C180.994 58.32 179.341 56.5333 179.341 52.96C179.341 49.9733 180.621 48.48 183.181 48.48C183.607 48.48 184.087 48.5867 184.621 48.8C185.154 48.96 185.554 49.04 185.821 49.04C186.727 49.04 187.181 47.5467 187.181 44.56V31.6C187.181 28.56 186.727 27.04 185.821 27.04C185.607 27.04 185.181 27.1467 184.541 27.36C183.954 27.52 183.501 27.6 183.181 27.6C180.621 27.6 179.341 26.1333 179.341 23.2C179.341 21.6 179.767 20.2933 180.621 19.28C181.474 18.2667 182.567 17.76 183.901 17.76C184.434 17.76 185.181 17.8667 186.141 18.08C187.101 18.2933 188.007 18.4 188.861 18.4C189.501 18.4 190.434 18.2933 191.661 18.08C192.887 17.8667 193.794 17.76 194.381 17.76C196.034 17.76 196.861 18.5867 196.861 20.24ZM257.082 59.36C252.709 59.36 249.775 57.6 248.282 54.08C244.549 57.6 240.122 59.36 235.002 59.36C230.789 59.36 227.429 58.2667 224.922 56.08C222.415 53.84 221.162 50.88 221.162 47.2C221.162 41.6 223.589 37.9733 228.442 36.32C230.522 35.6267 232.922 35.04 235.642 34.56C239.429 33.92 241.989 33.2 243.322 32.4C244.709 31.5467 245.402 30.2667 245.402 28.56C245.402 27.3333 244.869 26.32 243.802 25.52C242.789 24.6667 241.509 24.24 239.962 24.24C238.202 24.24 237.322 24.8 237.322 25.92C237.322 26.2933 237.349 26.6667 237.402 27.04V27.36C237.402 28.8533 236.762 30.1067 235.482 31.12C234.255 32.1333 232.709 32.64 230.842 32.64C228.709 32.64 226.949 32 225.562 30.72C224.175 29.44 223.482 27.84 223.482 25.92C223.482 23.04 225.002 20.7733 228.042 19.12C231.082 17.4667 235.269 16.64 240.602 16.64C246.362 16.64 250.655 17.52 253.482 19.28C256.522 21.2 258.042 24.7733 258.042 30V46.56C258.042 48.2667 258.469 49.12 259.322 49.12C259.749 49.12 260.149 49.0933 260.522 49.04C260.682 48.9867 260.869 48.96 261.082 48.96C262.309 48.96 263.349 49.3867 264.202 50.24C265.055 51.0933 265.482 52.1333 265.482 53.36C265.482 55.12 264.682 56.56 263.082 57.68C261.535 58.8 259.535 59.36 257.082 59.36ZM245.482 42.24V40.48C245.109 40.6933 242.762 41.36 238.442 42.48C235.509 43.2267 234.042 44.3733 234.042 45.92C234.042 48.3733 235.482 49.6 238.362 49.6C243.109 49.6 245.482 47.1467 245.482 42.24ZM27 110.16C25.56 110.107 24.84 110.907 24.84 112.56V115.12C24.84 116.933 25.64 117.84 27.24 117.84C27.88 117.84 28.68 117.76 29.64 117.6C30.8133 117.387 31.8 117.28 32.6 117.28C33.9333 117.28 35 117.76 35.8 118.72C36.6 119.68 37 120.96 37 122.56C37 124.32 36.4667 125.733 35.4 126.8C34.3333 127.867 32.9467 128.4 31.24 128.4C29.7467 128.4 27.5333 128.267 24.6 128C21.6667 127.733 19.4533 127.6 17.96 127.6C15.6667 127.6 13.7467 127.68 12.2 127.84L8.28 128.24C7.21333 128.347 6.49333 128.4 6.12 128.4C4.41333 128.4 3.02667 127.867 1.96 126.8C0.946667 125.733 0.44 124.32 0.44 122.56C0.44 121.067 0.84 119.813 1.64 118.8C2.49333 117.787 3.53333 117.28 4.76 117.28C5.24 117.28 5.90667 117.387 6.76 117.6C7.61333 117.76 8.22667 117.84 8.6 117.84C10.04 117.84 10.76 116.027 10.76 112.4V90.24C10.76 88.5333 10.7067 87.44 10.6 86.96C10.3333 85.5733 9.66667 84.88 8.6 84.88C8.17333 84.88 7.53333 84.9867 6.68 85.2C5.88 85.36 5.24 85.44 4.76 85.44C3.53333 85.44 2.49333 84.9333 1.64 83.92C0.84 82.9067 0.44 81.6533 0.44 80.16C0.44 78.4 0.973333 76.9867 2.04 75.92C3.10667 74.8 4.49333 74.24 6.2 74.24C6.25333 74.24 6.33333 74.24 6.44 74.24C6.54667 74.2933 6.65333 74.32 6.76 74.32C8.04 74.32 9.98667 74.4533 12.6 74.72C15.2133 74.9867 17.1867 75.12 18.52 75.12C21.08 75.12 23.88 75.0133 26.92 74.8C30.76 74.5333 32.9467 74.4 33.48 74.4C39.2933 74.4 43.9867 76.0533 47.56 79.36C51.1867 82.6133 53 86.9067 53 92.24C53 97.7867 51.1333 102.187 47.4 105.44C43.72 108.693 38.68 110.32 32.28 110.32C31.7467 110.32 30.7333 110.293 29.24 110.24L27 110.16ZM24.84 96.64C24.84 98.1333 24.9733 99.0667 25.24 99.44C25.5067 99.76 26.2267 99.9467 27.4 100L28.68 100.08C34.9733 100.453 38.12 97.9733 38.12 92.64C38.12 87.52 35.2933 84.96 29.64 84.96C28.2533 84.96 27.2933 85.04 26.76 85.2C25.8 85.4667 25.2133 86.1067 25 87.12C24.8933 87.6533 24.84 88.4533 24.84 89.52V96.64ZM91.6131 129.36C87.2398 129.36 84.3065 127.6 82.8131 124.08C79.0798 127.6 74.6531 129.36 69.5331 129.36C65.3198 129.36 61.9598 128.267 59.4531 126.08C56.9465 123.84 55.6931 120.88 55.6931 117.2C55.6931 111.6 58.1198 107.973 62.9731 106.32C65.0531 105.627 67.4531 105.04 70.1731 104.56C73.9598 103.92 76.5198 103.2 77.8531 102.4C79.2398 101.547 79.9331 100.267 79.9331 98.56C79.9331 97.3333 79.3998 96.32 78.3331 95.52C77.3198 94.6667 76.0398 94.24 74.4931 94.24C72.7331 94.24 71.8531 94.8 71.8531 95.92C71.8531 96.2933 71.8798 96.6667 71.9331 97.04V97.36C71.9331 98.8533 71.2931 100.107 70.0131 101.12C68.7865 102.133 67.2398 102.64 65.3731 102.64C63.2398 102.64 61.4798 102 60.0931 100.72C58.7065 99.44 58.0131 97.84 58.0131 95.92C58.0131 93.04 59.5331 90.7733 62.5731 89.12C65.6131 87.4667 69.7998 86.64 75.1331 86.64C80.8931 86.64 85.1865 87.52 88.0131 89.28C91.0531 91.2 92.5731 94.7733 92.5731 100V116.56C92.5731 118.267 92.9998 119.12 93.8531 119.12C94.2798 119.12 94.6798 119.093 95.0531 119.04C95.2131 118.987 95.3998 118.96 95.6131 118.96C96.8398 118.96 97.8798 119.387 98.7331 120.24C99.5865 121.093 100.013 122.133 100.013 123.36C100.013 125.12 99.2131 126.56 97.6131 127.68C96.0665 128.8 94.0665 129.36 91.6131 129.36ZM80.0131 112.24V110.48C79.6398 110.693 77.2931 111.36 72.9731 112.48C70.0398 113.227 68.5731 114.373 68.5731 115.92C68.5731 118.373 70.0131 119.6 72.8931 119.6C77.6398 119.6 80.0131 117.147 80.0131 112.24ZM117.694 90.64V93.04C121 88.7733 125.134 86.64 130.094 86.64C134.947 86.64 138.814 88.5333 141.694 92.32C144.574 96.0533 146.014 101.093 146.014 107.44C146.014 114 144.547 119.2 141.614 123.04C138.68 126.88 134.734 128.8 129.774 128.8C127.8 128.8 126.014 128.427 124.414 127.68C123.4 127.2 121.854 126.187 119.774 124.64V130.8C119.774 132.453 120.414 133.28 121.694 133.28C122.227 133.28 122.84 133.2 123.534 133.04C124.494 132.933 125.187 132.88 125.614 132.88C128.067 132.88 129.294 134.267 129.294 137.04C129.294 140.24 127.64 141.84 124.334 141.84C123.374 141.84 121.907 141.733 119.934 141.52C117.48 141.253 115.054 141.12 112.654 141.12C111.64 141.12 109.374 141.333 105.854 141.76C105.214 141.813 104.734 141.84 104.414 141.84C103.027 141.84 101.88 141.333 100.974 140.32C100.067 139.36 99.6137 138.107 99.6137 136.56C99.6137 133.573 100.92 132.08 103.534 132.08C103.96 132.08 104.36 132.16 104.734 132.32C105.694 132.533 106.147 132.64 106.094 132.64C107.054 132.64 107.534 131.12 107.534 128.08V101.6C107.534 98.56 107.08 97.04 106.174 97.04C106.014 97.04 105.534 97.1733 104.734 97.44C104.2 97.5467 103.774 97.6 103.454 97.6C100.894 97.6 99.6137 96.1067 99.6137 93.12C99.6137 91.5733 100.04 90.2933 100.894 89.28C101.747 88.2667 102.84 87.76 104.174 87.76H104.734L107.534 88.16C107.907 88.2667 108.68 88.32 109.854 88.32C111.4 88.32 112.84 88.2133 114.174 88C114.867 87.8933 115.374 87.84 115.694 87.84C117.027 87.84 117.694 88.7733 117.694 90.64ZM126.574 96.8C124.494 96.8 122.867 97.76 121.694 99.68C120.52 101.6 119.934 104.267 119.934 107.68C119.934 111.04 120.52 113.707 121.694 115.68C122.867 117.653 124.44 118.64 126.414 118.64C128.44 118.64 130.067 117.653 131.294 115.68C132.52 113.707 133.134 111.04 133.134 107.68C133.134 104.373 132.52 101.733 131.294 99.76C130.12 97.7867 128.547 96.8 126.574 96.8ZM189.341 104.56C189.341 106.8 189.047 108.293 188.461 109.04C187.927 109.787 186.834 110.16 185.181 110.16H165.661C164.701 110.16 164.087 110.267 163.821 110.48C163.607 110.64 163.501 111.093 163.501 111.84C163.501 114.08 164.221 115.947 165.661 117.44C167.101 118.933 168.914 119.68 171.101 119.68C173.341 119.68 175.634 118.453 177.981 116C179.581 114.293 181.341 113.44 183.261 113.44C184.861 113.44 186.141 113.893 187.101 114.8C188.114 115.707 188.621 116.853 188.621 118.24C188.621 121.333 186.914 123.973 183.501 126.16C180.141 128.293 176.034 129.36 171.181 129.36C164.834 129.36 159.767 127.44 155.981 123.6C152.194 119.76 150.301 114.64 150.301 108.24C150.301 101.787 152.167 96.5867 155.901 92.64C159.687 88.64 164.621 86.64 170.701 86.64C176.354 86.64 180.861 88.2667 184.221 91.52C187.634 94.7733 189.341 99.12 189.341 104.56ZM163.901 100.56C163.901 100.88 163.981 101.147 164.141 101.36C164.301 101.573 164.861 101.68 165.821 101.68H174.781C175.581 101.68 176.061 101.6 176.221 101.44C176.434 101.227 176.541 100.88 176.541 100.4C176.541 99.0133 175.927 97.8133 174.701 96.8C173.474 95.7333 172.034 95.2 170.381 95.2C168.247 95.2 166.514 96.0267 165.181 97.68C164.327 98.7467 163.901 99.7067 163.901 100.56ZM210.293 74.16C211.786 74.16 212.533 75.1467 212.533 77.12V114.96C212.533 117.627 213.066 118.96 214.133 118.96C214.559 118.96 214.933 118.907 215.253 118.8C215.573 118.693 215.999 118.64 216.533 118.64C218.879 118.64 220.053 120.027 220.053 122.8C220.053 126.48 218.453 128.32 215.253 128.32C215.199 128.32 213.173 128.16 209.173 127.84C207.946 127.733 206.639 127.68 205.253 127.68C204.079 127.68 202.826 127.76 201.493 127.92C199.253 128.187 197.839 128.32 197.253 128.32C195.813 128.32 194.639 127.84 193.733 126.88C192.826 125.867 192.373 124.56 192.373 122.96C192.373 119.973 193.679 118.48 196.293 118.48C196.613 118.48 197.039 118.587 197.573 118.8C198.159 118.96 198.613 119.04 198.933 119.04C199.839 119.04 200.293 117.547 200.293 114.56V87.92C200.293 84.9333 199.839 83.44 198.933 83.44C198.559 83.44 198.079 83.5467 197.493 83.76C197.173 83.8667 196.746 83.92 196.213 83.92C193.653 83.92 192.373 82.4533 192.373 79.52C192.373 77.8667 192.826 76.56 193.733 75.6C194.639 74.64 195.866 74.16 197.413 74.16C197.839 74.16 198.746 74.24 200.133 74.4C201.946 74.6133 203.306 74.72 204.213 74.72C205.439 74.72 206.506 74.6133 207.413 74.4C208.639 74.24 209.599 74.16 210.293 74.16ZM17 187.84C18.8133 187.84 19.72 186.187 19.72 182.88V159.84C19.72 156.267 18.4133 154.48 15.8 154.48C13.1867 154.48 11.88 155.387 11.88 157.2C11.88 157.733 11.96 158.56 12.12 159.68C12.3333 160.747 12.44 161.547 12.44 162.08C12.44 166.827 10.44 169.2 6.44 169.2C4.57333 169.2 3.10667 168.613 2.04 167.44C0.973333 166.213 0.44 164.587 0.44 162.56C0.44 161.867 0.546667 160.613 0.76 158.8C0.92 157.413 1 156.133 1 154.96C1 154.32 0.92 153.013 0.76 151.04C0.653333 149.707 0.6 148.64 0.6 147.84C0.6 145.493 1.77333 144.32 4.12 144.32C5.34667 144.32 6.89333 144.4 8.76 144.56C13.0267 144.933 19 145.12 26.68 145.12C34.4133 145.12 40.4133 144.933 44.68 144.56C46.5467 144.4 48.0667 144.32 49.24 144.32C51.64 144.32 52.84 145.493 52.84 147.84C52.84 148.64 52.76 149.84 52.6 151.44C52.4933 152.987 52.44 154.16 52.44 154.96C52.44 155.813 52.52 157.093 52.68 158.8C52.8933 161.04 53 162.32 53 162.64C53 164.667 52.44 166.267 51.32 167.44C50.2533 168.613 48.8133 169.2 47 169.2C43 169.2 41 166.907 41 162.32C41 161.68 41.08 160.827 41.24 159.76C41.4 158.693 41.48 157.893 41.48 157.36C41.48 155.44 40.3067 154.48 37.96 154.48C36.4133 154.48 35.32 154.88 34.68 155.68C34.04 156.48 33.72 157.867 33.72 159.84V182.88C33.72 186.187 34.6267 187.84 36.44 187.84C37.0267 187.84 37.88 187.76 39 187.6C40.1733 187.387 41.0533 187.28 41.64 187.28C44.84 187.28 46.44 188.88 46.44 192.08C46.44 196.293 44.44 198.4 40.44 198.4C38.8933 198.4 37.0533 198.293 34.92 198.08C31.72 197.76 28.9733 197.6 26.68 197.6C24.3333 197.6 21.5867 197.76 18.44 198.08C16.36 198.293 14.52 198.4 12.92 198.4C8.92 198.4 6.92 196.453 6.92 192.56C6.92 189.04 8.54667 187.28 11.8 187.28C12.3867 187.28 13.24 187.387 14.36 187.6C15.5333 187.76 16.4133 187.84 17 187.84ZM73.6706 157.76C75.164 157.76 75.9106 158.8 75.9106 160.88V184.96C75.9106 187.68 76.4173 189.04 77.4306 189.04C77.644 189.04 78.0173 188.987 78.5506 188.88C79.1373 188.72 79.6173 188.64 79.9906 188.64C82.2306 188.64 83.3506 190.027 83.3506 192.8C83.3506 196.48 81.7773 198.32 78.6306 198.32C78.0973 198.32 76.604 198.187 74.1506 197.92C72.6573 197.76 70.9506 197.68 69.0306 197.68C68.0706 197.68 66.6573 197.787 64.7906 198C62.924 198.213 61.5373 198.32 60.6306 198.32C59.1906 198.32 58.0173 197.84 57.1106 196.88C56.204 195.867 55.7506 194.587 55.7506 193.04C55.7506 190 57.0306 188.48 59.5906 188.48C59.5906 188.48 60.284 188.64 61.6706 188.96C61.884 189.013 62.0706 189.04 62.2306 189.04C63.1906 189.04 63.6706 187.547 63.6706 184.56V171.6C63.6706 168.56 63.2173 167.04 62.3106 167.04C62.1506 167.04 61.6706 167.173 60.8706 167.44C60.3373 167.547 59.9106 167.6 59.5906 167.6C57.0306 167.6 55.7506 166.107 55.7506 163.12C55.7506 161.52 56.204 160.24 57.1106 159.28C58.0173 158.267 59.2173 157.76 60.7106 157.76C61.2973 157.76 62.1506 157.84 63.2706 158C65.1373 158.267 66.6306 158.4 67.7506 158.4C68.6573 158.4 69.8306 158.293 71.2706 158.08C72.7106 157.867 73.5106 157.76 73.6706 157.76ZM69.1106 154.72C67.1373 154.72 65.4306 154 63.9906 152.56C62.5506 151.12 61.8306 149.413 61.8306 147.44C61.8306 145.413 62.524 143.707 63.9106 142.32C65.3506 140.88 67.084 140.16 69.1106 140.16C71.1373 140.16 72.844 140.88 74.2306 142.32C75.6706 143.707 76.3906 145.413 76.3906 147.44C76.3906 149.467 75.6706 151.2 74.2306 152.64C72.844 154.027 71.1373 154.72 69.1106 154.72ZM87.9756 204.16C87.9756 204.907 87.789 205.6 87.4156 206.24C87.8423 206.347 88.3223 206.4 88.8556 206.4C90.669 206.4 91.9223 205.6 92.6156 204C93.3623 202.4 93.7356 199.547 93.7356 195.44V171.6C93.7356 168.56 93.2556 167.04 92.2956 167.04C91.9756 167.04 91.4423 167.147 90.6956 167.36C90.0023 167.52 89.5223 167.6 89.2556 167.6C86.9623 167.6 85.8156 166.107 85.8156 163.12C85.8156 159.547 87.389 157.76 90.5356 157.76C91.3356 157.76 92.4823 157.867 93.9756 158.08C95.5223 158.293 96.6956 158.4 97.4956 158.4C98.2956 158.4 99.4956 158.293 101.096 158.08C102.696 157.867 103.576 157.76 103.736 157.76C105.229 157.76 105.976 158.8 105.976 160.88V197.52C105.976 200.507 105.709 202.827 105.176 204.48C104.642 206.187 103.629 207.84 102.136 209.44C98.8823 212.96 94.4023 214.72 88.6956 214.72C84.749 214.72 81.5223 213.893 79.0156 212.24C76.509 210.64 75.2556 208.533 75.2556 205.92C75.2556 204.053 75.9223 202.48 77.2556 201.2C78.589 199.92 80.2423 199.28 82.2156 199.28C83.869 199.28 85.229 199.733 86.2956 200.64C87.4156 201.6 87.9756 202.773 87.9756 204.16ZM98.9356 154.72C96.909 154.72 95.1756 154.027 93.7356 152.64C92.2956 151.2 91.5756 149.467 91.5756 147.44C91.5756 145.413 92.2956 143.707 93.7356 142.32C95.1756 140.88 96.909 140.16 98.9356 140.16C100.962 140.16 102.669 140.88 104.056 142.32C105.496 143.707 106.216 145.413 106.216 147.44C106.216 149.413 105.496 151.12 104.056 152.56C102.669 154 100.962 154.72 98.9356 154.72ZM152.466 174.56C152.466 176.8 152.172 178.293 151.586 179.04C151.052 179.787 149.959 180.16 148.306 180.16H128.786C127.826 180.16 127.212 180.267 126.946 180.48C126.732 180.64 126.626 181.093 126.626 181.84C126.626 184.08 127.346 185.947 128.786 187.44C130.226 188.933 132.039 189.68 134.226 189.68C136.466 189.68 138.759 188.453 141.106 186C142.706 184.293 144.466 183.44 146.386 183.44C147.986 183.44 149.266 183.893 150.226 184.8C151.239 185.707 151.746 186.853 151.746 188.24C151.746 191.333 150.039 193.973 146.626 196.16C143.266 198.293 139.159 199.36 134.306 199.36C127.959 199.36 122.892 197.44 119.106 193.6C115.319 189.76 113.426 184.64 113.426 178.24C113.426 171.787 115.292 166.587 119.026 162.64C122.812 158.64 127.746 156.64 133.826 156.64C139.479 156.64 143.986 158.267 147.346 161.52C150.759 164.773 152.466 169.12 152.466 174.56ZM127.026 170.56C127.026 170.88 127.106 171.147 127.266 171.36C127.426 171.573 127.986 171.68 128.946 171.68H137.906C138.706 171.68 139.186 171.6 139.346 171.44C139.559 171.227 139.666 170.88 139.666 170.4C139.666 169.013 139.052 167.813 137.826 166.8C136.599 165.733 135.159 165.2 133.506 165.2C131.372 165.2 129.639 166.027 128.306 167.68C127.452 168.747 127.026 169.707 127.026 170.56ZM173.658 160.24V167.04C174.404 164.32 175.284 162.32 176.298 161.04C178.644 158.107 181.924 156.64 186.138 156.64C189.071 156.64 191.524 157.6 193.498 159.52C195.524 161.387 196.538 163.707 196.538 166.48C196.538 168.667 195.898 170.48 194.618 171.92C193.338 173.307 191.711 174 189.738 174C188.244 174 186.964 173.52 185.898 172.56C184.884 171.6 184.378 170.427 184.378 169.04C184.378 168.293 184.724 167.253 185.418 165.92H184.938C181.364 165.92 178.964 167.813 177.738 171.6C176.778 174.64 176.298 178.133 176.298 182.08V185.12C176.298 187.04 176.458 188.267 176.778 188.8C176.991 189.12 177.364 189.28 177.898 189.28C178.378 189.28 179.044 189.173 179.898 188.96C180.751 188.747 181.391 188.64 181.818 188.64C182.991 188.64 183.978 189.067 184.778 189.92C185.631 190.72 186.058 191.707 186.058 192.88C186.058 194.427 185.524 195.733 184.458 196.8C183.444 197.813 182.191 198.32 180.698 198.32C179.898 198.32 178.404 198.187 176.218 197.92C174.884 197.76 173.204 197.68 171.178 197.68C169.151 197.68 167.364 197.76 165.818 197.92C163.258 198.187 161.684 198.32 161.098 198.32C157.791 198.32 156.138 196.533 156.138 192.96C156.138 189.973 157.418 188.48 159.978 188.48C160.404 188.48 160.884 188.587 161.418 188.8C161.951 188.96 162.351 189.04 162.618 189.04C163.524 189.04 163.978 187.547 163.978 184.56V171.6C163.978 168.56 163.524 167.04 162.618 167.04C162.404 167.04 161.978 167.147 161.338 167.36C160.751 167.52 160.298 167.6 159.978 167.6C157.418 167.6 156.138 166.133 156.138 163.2C156.138 161.6 156.564 160.293 157.418 159.28C158.271 158.267 159.364 157.76 160.698 157.76C161.231 157.76 161.978 157.867 162.938 158.08C163.898 158.293 164.804 158.4 165.658 158.4C166.298 158.4 167.231 158.293 168.458 158.08C169.684 157.867 170.591 157.76 171.178 157.76C172.831 157.76 173.658 158.587 173.658 160.24ZM233.879 199.36C229.505 199.36 226.572 197.6 225.079 194.08C221.345 197.6 216.919 199.36 211.799 199.36C207.585 199.36 204.225 198.267 201.719 196.08C199.212 193.84 197.959 190.88 197.959 187.2C197.959 181.6 200.385 177.973 205.239 176.32C207.319 175.627 209.719 175.04 212.439 174.56C216.225 173.92 218.785 173.2 220.119 172.4C221.505 171.547 222.199 170.267 222.199 168.56C222.199 167.333 221.665 166.32 220.599 165.52C219.585 164.667 218.305 164.24 216.759 164.24C214.999 164.24 214.119 164.8 214.119 165.92C214.119 166.293 214.145 166.667 214.199 167.04V167.36C214.199 168.853 213.559 170.107 212.279 171.12C211.052 172.133 209.505 172.64 207.639 172.64C205.505 172.64 203.745 172 202.359 170.72C200.972 169.44 200.279 167.84 200.279 165.92C200.279 163.04 201.799 160.773 204.839 159.12C207.879 157.467 212.065 156.64 217.399 156.64C223.159 156.64 227.452 157.52 230.279 159.28C233.319 161.2 234.839 164.773 234.839 170V186.56C234.839 188.267 235.265 189.12 236.119 189.12C236.545 189.12 236.945 189.093 237.319 189.04C237.479 188.987 237.665 188.96 237.879 188.96C239.105 188.96 240.145 189.387 240.999 190.24C241.852 191.093 242.279 192.133 242.279 193.36C242.279 195.12 241.479 196.56 239.879 197.68C238.332 198.8 236.332 199.36 233.879 199.36ZM222.279 182.24V180.48C221.905 180.693 219.559 181.36 215.239 182.48C212.305 183.227 210.839 184.373 210.839 185.92C210.839 188.373 212.279 189.6 215.159 189.6C219.905 189.6 222.279 187.147 222.279 182.24Z" fill="#009048"></path>
</svg>
